# AST/ASF file generated using VICON BodyLanguage
# -----------------------------------------------
:version 1.10
:name VICON
:units
  mass 1.0
  length 0.45
  angle deg
:documentation
   .ast/.asf automatically generated from VICON data using
   VICON BodyBuilder and BodyLanguage model FoxedUp or BRILLIANT.MOD
:root
   order TX TY TZ RX RY RZ
   axis XYZ
   position 0 0 0  
   orientation 0 0 0 
:bonedata
  begin
     id 1 
     name lhipjoint
     direction 0.646657 -0.683706 0.338203 
     length 2.4948 
     axis 0 0 0  XYZ
  end
  begin
     id 2 
     name lfemur
     direction 0.34202 -0.939693 0  
     length 6.79491  
     axis 0 0 20  XYZ
    dof rx ry rz
    limits (-160.0 20.0)
           (-70.0 70.0)
           (-60.0 70.0)
  end
  begin
     id 3 
     name ltibia
     direction 0.34202 -0.939693 0   
     length 7.56807   
     axis 0 0 20   XYZ
    dof rx
    limits (-10.0 170.0)
  end
  begin
     id 4 
     name lfoot
     direction 0.0679796 -0.186772 0.980048   
     length 2.53018   
     axis -90 7.62852e-016 20   XYZ
    dof rx rz
    limits (-45.0 90.0)
           (-70.0 20.0)
  end
  begin
     id 5 
     name ltoes
     direction 1.53625e-011 -4.21881e-011 1   
     length 1.26912   
     axis -90 7.62852e-016 20   XYZ
    dof rx
    limits (-90.0 20.0)
  end
  begin
     id 6 
     name rhipjoint
     direction -0.618868 -0.704065 0.348274   
     length 2.42265  
     axis 0 0 0  XYZ 
  end
  begin
     id 7 
     name rfemur
     direction -0.34202 -0.939693 0   
     length 6.73814   
     axis 0 0 -20   XYZ
    dof rx ry rz
    limits (-160.0 20.0)
           (-70.0 70.0)
           (-70.0 60.0)
  end
  begin
     id 8 
     name rtibia
     direction -0.34202 -0.939693 0   
     length 7.66799   
     axis 0 0 -20   XYZ
    dof rx
    limits (-10.0 170.0)
 end
 begin
     id 9 
     name rfoot
     direction -0.0727352 -0.199838 0.977125   
     length 2.57224  
     axis -90 -7.62852e-016 -20   XYZ
    dof rx rz
    limits (-45.0 90.0)
           (-20.0 70.0)
  end
  begin
     id 10 
     name rtoes
     direction -1.53501e-011 -4.21858e-011 1   
     length 1.28858   
     axis -90 -7.62852e-016 -20   XYZ
    dof rx
    limits (-90.0 20.0)
  end
  begin
     id 11 
     name lowerback
     direction -0.0172471 0.995767 -0.0902851   
     length 2.20206   
     axis 0 0 0   XYZ
    dof rx ry rz
    limits (-20.0 45.0)
           (-30.0 30.0)
           (-30.0 30.0)
  end
  begin
     id 12 
     name upperback
     direction -0.000110737 0.999714 0.0239043   
     length 2.19523   
     axis 0 0 0   XYZ
    dof rx ry rz
    limits (-20.0 45.0)
           (-30.0 30.0)
           (-30.0 30.0)
  end
  begin
     id 13 
     name thorax
     direction 0.00704869 0.997783 0.0661741   
     length 2.21977   
     axis 0 0 0   XYZ
    dof rx ry rz
    limits (-20.0 45.0)
           (-30.0 30.0)
           (-30.0 30.0)
  end
  begin
     id 14 
     name lowerneck
     direction -0.00407501 0.995527 0.0943846   
     length 1.83142   
     axis 0 0 0   XYZ
    dof rx ry rz
    limits (-20.0 45.0)
           (-30.0 30.0)
           (-30.0 30.0)
  end
  begin
     id 15 
     name upperneck
     direction 0.0640586 0.986486 -0.150807   
     length 1.84616   
     axis 0 0 0   XYZ
    dof rx ry rz
    limits (-20.0 45.0)
           (-30.0 30.0)
           (-30.0 30.0)
  end
  begin
     id 16
     name head
     direction 0.0188017 0.99791 -0.0618239  
     length 1.85932  
     axis 0 0 0   XYZ
    dof rx ry rz
    limits (-20.0 45.0)
           (-30.0 30.0)
           (-30.0 30.0)
  end
  begin
     id 17 
     name lclavicle
     direction 0.976074 0.206905 0.066852  
     length 3.81043  
     axis 0 0 0   XYZ
    dof ry rz
    limits (-20.0 10.0)
           (0.0 20.0)
  end
  begin
     id 18 
     name lhumerus
     direction 1 -4.48971e-011 1.86916e-027   
     length 5.37587   
     axis 180 -30 -90   XYZ
    dof rx ry rz
    limits (-60.0 90.0)
           (-90.0 90.0)
           (-90.0 90.0)
  end
  begin
     id 19
     name lradius
     direction 1 -4.48968e-011 1.69187e-027   
     length 3.35977   
     axis 180 -30 -90   XYZ
    dof rx
    limits (-10.0 170.0)
  end
  begin
     id 20
     name lwrist
     direction 1 -4.48968e-011 5.8978e-027   
     length 1.67988   
     axis -3.27506e-015 90 90   XYZ
    dof ry
    limits (-180.0 0.0)
 end
  begin
     id 21 
     name lhand
     direction 1 -4.49028e-011 1.18071e-026   
     length 0.561859   
     axis -7.52654e-015 90 90   XYZ
    dof rx rz
    limits (-90.0 90.0)
           (-45.0 45.0)
  end
  begin
     id 22 
     name lfingers
     direction 1 -4.48927e-011 2.35758e-026   
     length 0.452985   
     axis -1.50534e-014 90 90   XYZ
    dof rx
    limits (0.0 90.0)
  end
  begin
     id 23
     name lthumb
     direction 0.707107 -6.34898e-011 0.707107   
     length 0.650399   
     axis -90 45 5.69224e-014   XYZ
    dof rx rz
    limits (-45.0 45.0)
           (-45.0 45.0)
  end
  begin
     id 24 
     name rclavicle
     direction -0.988403 0.151789 0.00439714   
     length 3.6942  
     axis 0 0 0   XYZ 
    dof ry rz
    limits (-10.0 20.0)
           (-20.0 0.0)
  end
  begin
     id 25 
     name rhumerus
     direction -1 -4.48978e-011 1.62495e-027  
     length 5.22819   
     axis 180 30 90   XYZ
    dof rx ry rz
    limits (-90.0 60.0)
           (-90.0 90.0)
           (-90.0 90.0)
  end
  begin
     id 26 
     name rradius
     direction -1 -4.48961e-011 3.47796e-027   
     length 3.40764   
     axis 180 30 90   XYZ
    dof rx
    limits (-10.0 170.0)
  end
  begin
     id 27 
     name rwrist
     direction -1 -4.48949e-011 5.89602e-027   
     length 1.70382   
     axis -3.27506e-015 -90 -90   XYZ
    dof ry
    limits (-180.0 0.0)
  end
  begin
     id 28
     name rhand
     direction -1 -4.48977e-011 1.17973e-026   
     length 0.583255   
     axis -7.52654e-015 -90 -90   XYZ
    dof rx rz
    limits (-90.0 90.0)
           (-45.0 45.0)
  end
  begin
     id 29
     name rfingers
     direction -1 -4.49099e-011 2.36408e-026   
     length 0.470235   
     axis -1.50534e-014 -90 -90   XYZ
    dof rx
    limits (0.0 90.0)
  end
  begin
     id 30
     name rthumb
     direction -0.707107 -6.35011e-011 0.707107   
     length 0.675167   
     axis -90 -45 -5.69224e-014   XYZ
    dof rx rz
    limits (-45.0 45.0)
           (-45.0 45.0)
  end
:hierarchy
  begin
    root lhipjoint rhipjoint lowerback
    lhipjoint lfemur
    lfemur ltibia
    ltibia lfoot
    lfoot ltoes
    rhipjoint rfemur
    rfemur rtibia
    rtibia rfoot
    rfoot rtoes
    lowerback upperback
    upperback thorax
    thorax lowerneck lclavicle rclavicle
    lowerneck upperneck
    upperneck head
    lclavicle lhumerus
    lhumerus lradius
    lradius lwrist
    lwrist lhand lthumb
    lhand lfingers
    rclavicle rhumerus
    rhumerus rradius
    rradius rwrist
    rwrist rhand rthumb
    rhand rfingers
  end

#!OML:ASF G:\JayActor3\Patient Classification 1\Patient 1\Session 2\male.ASF
:FULLY-SPECIFIED
:DEGREES
1475
root -38.6696 16.9715 -5.79254 1261.14 -34.8416 -1257.5
lowerback 2.83977 -1.20402 -1.34495
upperback -0.284688 -1.63876 0.881146
thorax -1.81991 -0.801937 1.72855
lowerneck 2.99267 -8.01197 -12.9578
upperneck -0.648056 -11.412 16.4635
head 1.04214 -5.89988 6.94533
rclavicle 4.06763e-014 -7.7526e-015
rhumerus -41.9528 3.10417 -81.7674
rradius 36.1204
rwrist -1.72672
rhand -24.3745 3.22015
rfingers 7.12502
rthumb 2.11563 -26.7491
lclavicle 4.06763e-014 -7.7526e-015
lhumerus -25.3551 -1.31328 83.4706
lradius 34.3187
lwrist 11.2545
lhand -19.5451 18.4105
lfingers 7.12502
lthumb 6.77895 48.2819
rfemur -9.27617 14.7279 15.3907
rtibia 30.3135
rfoot -13.2267 8.86066
rtoes 20.9267
lfemur -11.2857 -0.120935 -17.3785
ltibia 20.6018
lfoot -7.67614 -9.69212
ltoes 2.03531
1476
root -38.7051 16.9776 -5.7566 1261.21 -33.6556 -1257.48
lowerback 3.00696 -1.2907 -1.46116
upperback -0.245925 -1.76054 0.87779
thorax -1.86576 -0.861474 1.79918
lowerneck 3.20367 -8.36324 -13.0089
upperneck -0.693939 -11.921 16.5561
head 1.07945 -6.16523 6.96548
rclavicle 9.19131e-014 1.07344e-014
rhumerus -41.8695 3.37872 -81.9913
rradius 36.3402
rwrist -1.94369
rhand -24.427 3.27415
rfingers 7.12502
rthumb 2.06493 -26.6956
lclavicle 9.19131e-014 1.07344e-014
lhumerus -25.4551 -1.24024 83.5072
lradius 34.2157
lwrist 11.3897
lhand -20.0863 18.3888
lfingers 7.12502
lthumb 6.25646 48.2764
rfemur -9.73596 14.9449 15.1013
rtibia 30.3675
rfoot -12.794 9.14098
rtoes 20.5353
lfemur -11.1538 0.356871 -17.4936
ltibia 20.5121
lfoot -7.74378 -9.04558
ltoes 3.09288
1477
root -38.7404 16.9831 -5.72009 1261.3 -32.4312 -1257.45
lowerback 3.14797 -1.37572 -1.56643
upperback -0.204904 -1.87987 0.871242
thorax -1.89467 -0.920109 1.85995
lowerneck 3.40952 -8.77152 -12.9034
upperneck -0.793372 -12.4924 16.5497
head 1.09571 -6.46133 6.92679
rclavicle 1.13841e-013 -1.98785e-015
rhumerus -41.778 3.65146 -82.2118
rradius 36.5634
rwrist -2.17073
rhand -24.4817 3.26851
rfingers 7.12502
rthumb 2.01212 -26.7017
lclavicle 1.13841e-013 -1.98785e-015
lhumerus -25.5695 -1.25132 83.5491
lradius 34.1275
lwrist 11.5651
lhand -20.5485 18.4096
lfingers 7.12502
lthumb 5.81027 48.3099
rfemur -10.2424 15.1322 14.8299
rtibia 30.4168
rfoot -12.435 9.33183
rtoes 19.7893
lfemur -11.062 0.773736 -17.5952
ltibia 20.456
lfoot -7.8455 -8.31524
ltoes 4.27847
1478
root -38.7754 16.9876 -5.68317 1261.41 -31.1621 -1257.42
lowerback 3.25986 -1.45601 -1.66186
upperback -0.164087 -1.99249 0.859362
thorax -1.90785 -0.9757 1.90889
lowerneck 3.57775 -9.20058 -12.7037
upperneck -0.88753 -13.0835 16.4924
head 1.11203 -6.76548 6.854
rclavicle -2.33448e-014 9.93923e-016
rhumerus -41.6393 3.82672 -82.3896
rradius 36.7163
rwrist -2.29154
rhand -24.5043 3.28018
rfingers 7.12502
rthumb 1.99027 -26.6903
lclavicle -2.33448e-014 9.93923e-016
lhumerus -25.6931 -1.31916 83.5917
lradius 34.0421
lwrist 11.7457
lhand -20.7272 18.4401
lfingers 7.12502
lthumb 5.63776 48.3451
rfemur -10.7945 15.3073 14.5725
rtibia 30.4695
rfoot -12.1567 9.47399
rtoes 18.9399
lfemur -11.0169 1.20808 -17.6954
ltibia 20.4301
lfoot -8.00322 -7.53934
ltoes 5.20427
1479
root -38.8112 16.9911 -5.64693 1261.53 -29.8622 -1257.38
lowerback 3.34527 -1.53427 -1.74768
upperback -0.117367 -2.102 0.837765
thorax -1.90062 -1.0302 1.94158
lowerneck 3.70367 -9.59873 -12.5246
upperneck -0.92262 -13.6363 16.4526
head 1.14777 -7.04852 6.78799
rclavicle 9.14409e-015 3.57812e-015
rhumerus -41.4916 3.98361 -82.5656
rradius 36.8638
rwrist -2.42745
rhand -24.5453 3.23712
rfingers 7.12502
rthumb 1.9507 -26.7337
lclavicle 9.14409e-015 3.57812e-015
lhumerus -25.8263 -1.43112 83.633
lradius 33.9615
lwrist 11.935
lhand -20.9176 18.4867
lfingers 7.12502
lthumb 5.45393 48.3965
rfemur -11.3625 15.4547 14.3281
rtibia 30.5364
rfoot -11.9772 9.59376
rtoes 18.0457
lfemur -10.977 1.59347 -17.8115
ltibia 20.4135
lfoot -8.23508 -6.65815
ltoes 5.75323
1480
root -38.8478 16.9934 -5.6116 1261.66 -28.5363 -1257.35
lowerback 3.40752 -1.6176 -1.83463
upperback -0.0737356 -2.21808 0.816895
thorax -1.88294 -1.08811 1.97536
lowerneck 3.81011 -9.96627 -12.3944
upperneck -0.905479 -14.1544 16.437
head 1.20076 -7.31303 6.736
rclavicle 1.3418e-015 -5.1684e-015
rhumerus -41.3434 4.14391 -82.7238
rradius 36.9961
rwrist -2.5383
rhand -24.5683 3.19808
rfingers 7.12502
rthumb 1.92851 -26.7729
lclavicle 1.3418e-015 -5.1684e-015
lhumerus -25.9747 -1.47961 83.6649
lradius 33.8631
lwrist 12.0729
lhand -21.0874 18.5389
lfingers 7.12502
lthumb 5.28997 48.4529
rfemur -11.9393 15.568 14.0984
rtibia 30.6295
rfoot -11.8986 9.72079
rtoes 17.2654
lfemur -10.9422 2.02269 -17.9465
ltibia 20.4004
lfoot -8.51044 -5.76153
ltoes 5.90077
1481
root -38.8854 16.9938 -5.57765 1261.78 -27.2244 -1257.34
lowerback 3.47231 -1.71996 -1.94036
upperback -0.0333023 -2.36043 0.796621
thorax -1.86766 -1.15895 2.02171
lowerneck 3.86786 -10.2312 -12.5007
upperneck -0.714465 -14.5609 16.5153
head 1.31974 -7.51768 6.74666
rclavicle 3.72473e-014 -2.38542e-015
rhumerus -41.23 4.3626 -82.8729
rradius 37.1542
rwrist -2.64269
rhand -24.5535 3.20517
rfingers 7.12502
rthumb 1.94278 -26.7657
lclavicle 3.72473e-014 -2.38542e-015
lhumerus -26.1413 -1.4381 83.6886
lradius 33.7406
lwrist 12.1569
lhand -21.2128 18.5861
lfingers 7.12502
lthumb 5.16887 48.503
rfemur -12.4923 15.6189 13.8822
rtibia 30.7603
rfoot -11.9394 9.84832
rtoes 16.6315
lfemur -10.8973 2.6032 -18.1326
ltibia 20.3835
lfoot -8.82036 -4.91697
ltoes 4.97475
1482
root -38.922 16.9934 -5.54397 1261.92 -25.8944 -1257.34
lowerback 3.53043 -1.82822 -2.0683
upperback -0.00469634 -2.51146 0.781495
thorax -1.85874 -1.23372 2.08628
lowerneck 3.88305 -10.4847 -12.5823
upperneck -0.4716 -14.9502 16.536
head 1.45241 -7.71024 6.73178
rclavicle -6.80837e-015 -1.15295e-014
rhumerus -41.147 4.6555 -83.0342
rradius 37.3442
rwrist -2.80897
rhand -24.5664 3.19231
rfingers 7.12502
rthumb 1.93036 -26.7787
lclavicle -6.80837e-015 -1.15295e-014
lhumerus -26.3129 -1.29866 83.6991
lradius 33.5896
lwrist 12.1828
lhand -21.2915 18.6298
lfingers 7.12502
lthumb 5.09284 48.5486
rfemur -13.0644 15.6046 13.6918
rtibia 30.9405
rfoot -12.1015 9.96909
rtoes 16.0167
lfemur -10.8799 3.31314 -18.3361
ltibia 20.3694
lfoot -9.10579 -4.13821
ltoes 3.63072
1483
root -38.9579 16.9918 -5.51078 1262.05 -24.5444 -1257.35
lowerback 3.58547 -1.93182 -2.20914
upperback 0.0247443 -2.657 0.760401
thorax -1.84664 -1.30576 2.15159
lowerneck 3.85274 -10.7336 -12.6058
upperneck -0.19507 -15.328 16.4979
head 1.59165 -7.89399 6.6861
rclavicle -4.30617e-014 -1.51076e-014
rhumerus -41.0714 4.94468 -83.1882
rradius 37.5379
rwrist -2.96557
rhand -24.5772 3.20671
rfingers 7.12502
rthumb 1.91995 -26.7644
lclavicle -4.30617e-014 -1.51076e-014
lhumerus -26.4693 -1.12949 83.6973
lradius 33.4179
lwrist 12.2032
lhand -21.2505 18.6371
lfingers 7.12502
lthumb 5.13243 48.555
rfemur -13.6428 15.5022 13.5403
rtibia 31.1767
rfoot -12.3895 10.0735
rtoes 15.288
lfemur -10.8737 4.14947 -18.5561
ltibia 20.3586
lfoot -9.36234 -3.41967
ltoes 1.85953
1484
root -38.9911 16.9896 -5.47668 1262.19 -23.1956 -1257.35
lowerback 3.65612 -2.02104 -2.35352
upperback 0.062139 -2.78435 0.724643
thorax -1.83605 -1.36889 2.20348
lowerneck 3.78764 -10.9842 -12.5756
upperneck 0.0787677 -15.7038 16.4529
head 1.73069 -8.07583 6.62726
rclavicle -2.6165e-014 8.34896e-015
rhumerus -40.9827 5.16139 -83.3366
rradius 37.7318
rwrist -3.11705
rhand -24.607 3.20378
rfingers 7.12502
rthumb 1.89112 -26.7676
lclavicle -2.6165e-014 8.34896e-015
lhumerus -26.5802 -1.02426 83.6915
lradius 33.2235
lwrist 12.2246
lhand -21.2076 18.6477
lfingers 7.12502
lthumb 5.17391 48.5645
rfemur -14.2222 15.3165 13.4482
rtibia 31.4692
rfoot -12.7841 10.1311
rtoes 14.5582
lfemur -10.8984 5.05625 -18.7702
ltibia 20.359
lfoot -9.57465 -2.75219
ltoes -0.140427
